<?xml version="1.0" encoding="iso-8859-1"?>
<!-- Generator: Adobe Illustrator 16.0.0, SVG Export Plug-In . SVG Version: 6.00 Build 0)  -->
<!DOCTYPE svg PUBLIC "-//W3C//DTD SVG 1.1//EN" "http://www.w3.org/Graphics/SVG/1.1/DTD/svg11.dtd">
<svg xmlns="http://www.w3.org/2000/svg" xmlns:xlink="http://www.w3.org/1999/xlink" version="1.1" id="Capa_1" x="0px" y="0px" width="512px" height="512px" viewBox="0 0 939.5 939.5" style="enable-background:new 0 0 939.5 939.5;" xml:space="preserve">
<g>
	<g>
		<path d="M748.65,794c0.1-15-5.6-29.2-16.2-40c-10.6-10.7-24.8-16.6-39.8-16.6H72.85v112.1h618.7    C722.75,849.5,748.35,824.6,748.65,794z" fill="#7a3dc4"/>
		<path d="M838.65,793.8c0.2-79.3-63.1-144.2-141.8-146.399H43.65c-13.8,0-25,11.199-25,25v10c0,13.8,11.2,25,25,25h649    c27.5,0,52.1,13,67.8,33.199c11.601,14.801,18.4,33.5,18.2,53.7c-0.2,19.5-7,37.4-18.2,51.7c-16,20.4-41.1,33.5-68.899,33.5H43.65    c-13.8,0-25,11.2-25,25v10c0,13.8,11.2,25,25,25h647.5C771.95,939.5,838.45,874.6,838.65,793.8z" fill="#7a3dc4"/>
		<path d="M207.05,432c-10.6,10.7-16.4,24.9-16.2,40c0.3,30.6,25.9,55.5,57.1,55.5h618.7V415.4h-619.8    C231.85,415.4,217.75,421.3,207.05,432z" fill="#7a3dc4"/>
		<path d="M895.85,325.4h-649c-80.7,0-146.3,65.7-146,146.5c0.2,79.3,64.4,143.3,143.2,145.6c1.4,0,651.8,0.1,651.8,0.1    c13.8,0,25-11.199,25-25v-10c0-13.8-11.2-25-25-25h-647.9c-27.9,0-52.9-13.1-68.9-33.5c-11.2-14.3-18-32.199-18.2-51.699    c-0.2-20.2,6.6-38.9,18.2-53.7c15.8-20.2,40.3-33.2,67.8-33.2h649c13.8,0,25-11.2,25-25v-10    C920.85,336.6,909.65,325.4,895.85,325.4z" fill="#7a3dc4"/>
		<path d="M801.65,146.6c0.1-15-5.6-29.2-16.2-40C774.75,95.9,760.65,90,745.55,90h-619.7v112.1h618.7    C775.75,202.1,801.35,177.2,801.65,146.6z" fill="#7a3dc4"/>
		<path d="M96.65,232.1c-13.8,0-25,11.2-25,25v10c0,13.8,11.2,25,25,25h647.5c80.7,0,147.2-64.9,147.5-145.6    C891.85,65.7,826.25,0,745.55,0H96.65c-13.8,0-25,11.2-25,25v10c0,13.8,11.2,25,25,25h649c27.5,0,52.1,13,67.8,33.2    c11.601,14.8,18.4,33.5,18.2,53.7c-0.2,19.5-7,37.4-18.2,51.7c-16,20.4-41.1,33.5-68.899,33.5H96.65z" fill="#7a3dc4"/>
	</g>
</g>
<g>
</g>
<g>
</g>
<g>
</g>
<g>
</g>
<g>
</g>
<g>
</g>
<g>
</g>
<g>
</g>
<g>
</g>
<g>
</g>
<g>
</g>
<g>
</g>
<g>
</g>
<g>
</g>
<g>
</g>
</svg>
